<?xml version="1.0" encoding="UTF-8"?>
<svg version="1.1" xmlns="http://www.w3.org/2000/svg" width="128" height="128">
<path d="M0 0 C42.24 0 84.48 0 128 0 C128 42.24 128 84.48 128 128 C85.76 128 43.52 128 0 128 C0 85.76 0 43.52 0 0 Z " fill="#FEFEFE" transform="translate(0,0)"/>
<path d="M0 0 C9.714375 -0.1546875 9.714375 -0.1546875 19.625 -0.3125 C21.65865723 -0.35802002 23.69231445 -0.40354004 25.78759766 -0.45043945 C27.41306919 -0.46505274 29.03855912 -0.47779142 30.6640625 -0.48828125 C31.49703857 -0.51386108 32.33001465 -0.53944092 33.18823242 -0.5657959 C37.20858869 -0.56878991 40.19480898 -0.32936179 43.53808594 2.0324707 C46.57992917 5.69903203 46.84286506 8.39676854 46.7265625 12.96875 C46.72755951 13.72667847 46.72855652 14.48460693 46.72958374 15.26550293 C46.72491814 16.86249316 46.70555302 18.45950022 46.67236328 20.05615234 C46.62513166 22.49320675 46.63124978 24.92588473 46.64453125 27.36328125 C46.6333768 28.91929677 46.61915642 30.47529396 46.6015625 32.03125 C46.60429672 33.11738586 46.60429672 33.11738586 46.60708618 34.22546387 C46.47202638 39.07277649 45.44392966 41.59393342 42 45 C38.61536248 46.69231876 34.77592462 46.1199633 31.0546875 46.09765625 C29.87821655 46.09614563 29.87821655 46.09614563 28.67797852 46.09460449 C25.74363751 46.08936611 22.80931731 46.07540487 19.875 46.0625 C10.036875 46.0315625 10.036875 46.0315625 0 46 C0 30.82 0 15.64 0 0 Z " fill="#010101" transform="translate(14,35)"/>
<path d="M0 0 C1.25554688 -0.00128906 2.51109375 -0.00257812 3.8046875 -0.00390625 C4.46178711 -0.00181152 5.11888672 0.0002832 5.79589844 0.00244141 C7.80411335 0.00779016 9.81210459 0.00249559 11.8203125 -0.00390625 C13.07585938 -0.00261719 14.33140625 -0.00132813 15.625 0 C16.78644531 0.00112793 17.94789062 0.00225586 19.14453125 0.00341797 C21.8125 0.1328125 21.8125 0.1328125 22.8125 1.1328125 C22.91243532 3.1933656 22.94330906 5.2573384 22.9453125 7.3203125 C22.94724609 9.20363281 22.94724609 9.20363281 22.94921875 11.125 C22.94607666 12.11064941 22.94607666 12.11064941 22.94287109 13.11621094 C22.93752234 15.12442585 22.94281691 17.13241709 22.94921875 19.140625 C22.94792969 20.39617188 22.94664063 21.65171875 22.9453125 22.9453125 C22.94418457 24.10675781 22.94305664 25.26820312 22.94189453 26.46484375 C22.8125 29.1328125 22.8125 29.1328125 21.8125 30.1328125 C19.7519469 30.23274782 17.6879741 30.26362156 15.625 30.265625 C14.36945312 30.26691406 13.11390625 30.26820312 11.8203125 30.26953125 C11.16321289 30.26743652 10.50611328 30.2653418 9.82910156 30.26318359 C7.82088665 30.25783484 5.81289541 30.26312941 3.8046875 30.26953125 C2.54914062 30.26824219 1.29359375 30.26695313 0 30.265625 C-1.16144531 30.26449707 -2.32289062 30.26336914 -3.51953125 30.26220703 C-6.1875 30.1328125 -6.1875 30.1328125 -7.1875 29.1328125 C-7.28743532 27.0722594 -7.31830906 25.0082866 -7.3203125 22.9453125 C-7.32160156 21.68976563 -7.32289062 20.43421875 -7.32421875 19.140625 C-7.32212402 18.48352539 -7.3200293 17.82642578 -7.31787109 17.14941406 C-7.31252234 15.14119915 -7.31781691 13.13320791 -7.32421875 11.125 C-7.32292969 9.86945312 -7.32164063 8.61390625 -7.3203125 7.3203125 C-7.31862061 5.57814453 -7.31862061 5.57814453 -7.31689453 3.80078125 C-7.07536492 -1.179286 -4.38338655 0.0042569 0 0 Z " fill="#F1F1F1" transform="translate(29.1875,42.8671875)"/>
<path d="M0 0 C2.97 0 5.94 0 9 0 C9 12.54 9 25.08 9 38 C21.21 38 33.42 38 46 38 C46 40.64 46 43.28 46 46 C30.82 46 15.64 46 0 46 C0 30.82 0 15.64 0 0 Z " fill="#070707" transform="translate(67,35)"/>
</svg>
